# xmcd
# 
# Track frame offsets:
#     150
#     13646
#     31443
#     43471
#     62509
#     79678
#     98504
#     113325
#     124372
#     138876
#     153752
#     165323
# 
# Disc length: 2474
# 
# Revision: 0
# Processed by: cddbd v1.5.2PL0 Copyright (c) Steve Scherf et al.
# Submitted via: BonkEnc v1.0
# 
DISCID=8809a80c
DTITLE=Various Artist - Wynonna - Influences
DYEAR=2007
DGENRE=Country
TTITLE0=Loretta Lynn - Coal Miner's Daughter
TTITLE1=Alabama - Dixieland Delight
TTITLE2=Dolly Parton - Jolene
TTITLE3=Kenny Rogers - She Believes In Me
TTITLE4=Ray Price - For The Good Times
TTITLE5=Kris Kistofferson - Me And Bobby McGee
TTITLE6=Emmylou Harris - Blue Kentucky Girl
TTITLE7=Conway Twitty - Hello Darlin'
TTITLE8=Tammy Wynette - No Charge
TTITLE9=George Jones - He Stopped Loving Her Today
TTITLE10=Merle Haggard - Workin' Man Blues
TTITLE11=Steve Earle And The Dukes - Copperhead Road
EXTD=
EXTT0=
EXTT1=
EXTT2=
EXTT3=
EXTT4=
EXTT5=
EXTT6=
EXTT7=
EXTT8=
EXTT9=
EXTT10=
EXTT11=
PLAYORDER=
